<?xml version="1.0" encoding="utf-8"?>
<!-- Generator: Adobe Illustrator 17.0.1, SVG Export Plug-In . SVG Version: 6.00 Build 0)  -->
<!DOCTYPE svg PUBLIC "-//W3C//DTD SVG 1.1//EN" "http://www.w3.org/Graphics/SVG/1.1/DTD/svg11.dtd">
<svg version="1.1" id="Layer_1" xmlns="http://www.w3.org/2000/svg" xmlns:xlink="http://www.w3.org/1999/xlink" x="0px" y="0px"
	 width="1024px" height="768px" viewBox="0 0 1024 768" enable-background="new 0 0 1024 768" xml:space="preserve">
<rect x="-647" y="33" fill="#4DDBD4" stroke="#000000" stroke-width="4" stroke-miterlimit="10" width="112" height="247"/>
<rect x="-535" y="132" fill="#4DDBD4" stroke="#000000" stroke-width="4" stroke-miterlimit="10" width="113" height="148"/>
<rect x="-310" y="92" fill="#4DDBD4" stroke="#000000" stroke-width="4" stroke-miterlimit="10" width="113" height="188"/>
<rect x="-422" y="171" fill="#4DDBD4" stroke="#000000" stroke-width="4" stroke-miterlimit="10" width="112" height="109"/>
<text transform="matrix(1 0 0 1 -636 256)" fill="#514F4F" font-family="'SaySomething'" font-size="101" letter-spacing="53">N</text>
<text transform="matrix(1 0 0 1 -501 256)" fill="#514F4F" font-family="'SaySomething'" font-size="101" letter-spacing="53">E</text>
<text transform="matrix(1 0 0 1 -387 256)" fill="#514F4F" font-family="'SaySomething'" font-size="101" letter-spacing="53">S</text>
<text transform="matrix(1 0 0 1 -280 256)" fill="#514F4F" font-family="'SaySomething'" font-size="101" letter-spacing="53">H</text>
<text transform="matrix(1 0 0 1 -295 143)" fill="#514F4F" font-family="'SaySomething'" font-size="50">.co</text>
<rect x="47" y="32" fill="#67D3C6" stroke="#000000" stroke-width="2" stroke-miterlimit="10" width="28" height="64"/>
<rect x="75" y="54" fill="#67D3C6" stroke="#000000" stroke-width="2" stroke-miterlimit="10" width="29" height="42"/>
<rect x="133" y="48" fill="#67D3C6" stroke="#000000" stroke-width="2" stroke-miterlimit="10" width="30" height="48"/>
<rect x="104" y="62" fill="#67D3C6" stroke="#000000" stroke-width="2" stroke-miterlimit="10" width="29" height="34"/>
<text transform="matrix(1 0 0 1 47.6735 89.9961)" fill="#6D1B0D" font-family="'SaySomething'" font-size="26.0015" letter-spacing="13">N</text>
<text transform="matrix(1 0 0 1 82.4283 89.9961)" fill="#6D1B0D" font-family="'SaySomething'" font-size="26.0015" letter-spacing="13">E</text>
<text transform="matrix(0.9999 -0.0169 0.0169 0.9999 111.2714 90.231)" fill="#6D1B0D" font-family="'SaySomething'" font-size="26.0015" letter-spacing="13">S</text>
<text transform="matrix(1 0 0 1 139.3228 89.9961)" fill="#6D1B0D" font-family="'SaySomething'" font-size="26.0015" letter-spacing="13">H</text>
<text transform="matrix(1 0 0 1 135.1856 61.1036)" fill="#6D1B0D" font-family="'SaySomething'" font-size="16.1032">.co</text>
</svg>
